<mxfile host="Electron" modified="2024-03-13T03:47:46.667Z" agent="Mozilla/5.0 (X11; Linux x86_64) AppleWebKit/537.36 (KHTML, like Gecko) draw.io/22.0.3 Chrome/114.0.5735.289 Electron/25.8.4 Safari/537.36" etag="P6O1_6wUChXK4HnhlgWx" version="22.0.3" type="device">
  <diagram id="prtHgNgQTEPvFCAcTncT" name="Page-1">
    <mxGraphModel dx="1235" dy="784" grid="1" gridSize="10" guides="1" tooltips="1" connect="1" arrows="1" fold="1" page="1" pageScale="1" pageWidth="827" pageHeight="1169" math="0" shadow="0">
      <root>
        <mxCell id="0" />
        <mxCell id="1" parent="0" />
        <mxCell id="p7P3JcYzQtHR3jyxXLdV-1" value="Pool" style="swimlane;childLayout=stackLayout;resizeParent=1;resizeParentMax=0;startSize=20;horizontal=0;horizontalStack=1;" vertex="1" parent="1">
          <mxGeometry x="120" y="70" width="1120" height="730" as="geometry" />
        </mxCell>
        <mxCell id="p7P3JcYzQtHR3jyxXLdV-2" value="SensorService.java" style="swimlane;startSize=60;" vertex="1" parent="p7P3JcYzQtHR3jyxXLdV-1">
          <mxGeometry x="20" width="200" height="730" as="geometry" />
        </mxCell>
        <mxCell id="p7P3JcYzQtHR3jyxXLdV-5" value="SensorService" style="rounded=0;whiteSpace=wrap;html=1;" vertex="1" parent="p7P3JcYzQtHR3jyxXLdV-2">
          <mxGeometry x="15" y="70" width="155" height="60" as="geometry" />
        </mxCell>
        <mxCell id="p7P3JcYzQtHR3jyxXLdV-3" value="LocalSocketServerHandler" style="swimlane;startSize=60;" vertex="1" parent="p7P3JcYzQtHR3jyxXLdV-1">
          <mxGeometry x="220" width="215" height="730" as="geometry" />
        </mxCell>
        <mxCell id="p7P3JcYzQtHR3jyxXLdV-6" value="mLssHandler&lt;br&gt;构造()、start()" style="rounded=0;whiteSpace=wrap;html=1;" vertex="1" parent="p7P3JcYzQtHR3jyxXLdV-3">
          <mxGeometry x="30" y="70" width="155" height="60" as="geometry" />
        </mxCell>
        <mxCell id="p7P3JcYzQtHR3jyxXLdV-34" value="dispatchSensorEvent()" style="rounded=0;whiteSpace=wrap;html=1;" vertex="1" parent="p7P3JcYzQtHR3jyxXLdV-3">
          <mxGeometry x="30" y="470" width="155" height="60" as="geometry" />
        </mxCell>
        <mxCell id="p7P3JcYzQtHR3jyxXLdV-4" value="com_android_server_sen&#xa;sor_SensorService.cpp" style="swimlane;startSize=60;" vertex="1" parent="p7P3JcYzQtHR3jyxXLdV-1">
          <mxGeometry x="435" width="185" height="730" as="geometry" />
        </mxCell>
        <mxCell id="p7P3JcYzQtHR3jyxXLdV-12" value="" style="edgeStyle=orthogonalEdgeStyle;rounded=0;orthogonalLoop=1;jettySize=auto;html=1;" edge="1" parent="p7P3JcYzQtHR3jyxXLdV-4" source="p7P3JcYzQtHR3jyxXLdV-8" target="p7P3JcYzQtHR3jyxXLdV-11">
          <mxGeometry relative="1" as="geometry" />
        </mxCell>
        <mxCell id="p7P3JcYzQtHR3jyxXLdV-8" value="startSensorServiceNative()" style="rounded=0;whiteSpace=wrap;html=1;" vertex="1" parent="p7P3JcYzQtHR3jyxXLdV-4">
          <mxGeometry x="15" y="150" width="155" height="60" as="geometry" />
        </mxCell>
        <mxCell id="p7P3JcYzQtHR3jyxXLdV-11" value="NativeSensorService()" style="rounded=0;whiteSpace=wrap;html=1;" vertex="1" parent="p7P3JcYzQtHR3jyxXLdV-4">
          <mxGeometry x="15" y="240" width="155" height="60" as="geometry" />
        </mxCell>
        <mxCell id="p7P3JcYzQtHR3jyxXLdV-13" value="SensorService.cpp&#xa;SensorEventSocketListener" style="swimlane;startSize=60;" vertex="1" parent="p7P3JcYzQtHR3jyxXLdV-1">
          <mxGeometry x="620" width="250" height="730" as="geometry" />
        </mxCell>
        <mxCell id="p7P3JcYzQtHR3jyxXLdV-16" value="SensorEventSocketListenerDelegate()" style="rounded=0;whiteSpace=wrap;html=1;" vertex="1" parent="p7P3JcYzQtHR3jyxXLdV-13">
          <mxGeometry x="15" y="240" width="215" height="60" as="geometry" />
        </mxCell>
        <mxCell id="p7P3JcYzQtHR3jyxXLdV-32" value="onSocketEvent(buffer)" style="rounded=0;whiteSpace=wrap;html=1;" vertex="1" parent="p7P3JcYzQtHR3jyxXLdV-13">
          <mxGeometry x="45" y="470" width="155" height="60" as="geometry" />
        </mxCell>
        <mxCell id="p7P3JcYzQtHR3jyxXLdV-22" value="SensorService.cpp" style="swimlane;startSize=60;" vertex="1" parent="p7P3JcYzQtHR3jyxXLdV-1">
          <mxGeometry x="870" width="250" height="730" as="geometry" />
        </mxCell>
        <mxCell id="p7P3JcYzQtHR3jyxXLdV-20" value="SensorService()" style="rounded=0;whiteSpace=wrap;html=1;" vertex="1" parent="p7P3JcYzQtHR3jyxXLdV-22">
          <mxGeometry x="60" y="300" width="155" height="60" as="geometry" />
        </mxCell>
        <mxCell id="p7P3JcYzQtHR3jyxXLdV-27" value="setSensorEventListener()" style="rounded=0;whiteSpace=wrap;html=1;" vertex="1" parent="p7P3JcYzQtHR3jyxXLdV-22">
          <mxGeometry x="60" y="390" width="155" height="60" as="geometry" />
        </mxCell>
        <mxCell id="p7P3JcYzQtHR3jyxXLdV-7" value="" style="edgeStyle=orthogonalEdgeStyle;rounded=0;orthogonalLoop=1;jettySize=auto;html=1;" edge="1" parent="p7P3JcYzQtHR3jyxXLdV-1" source="p7P3JcYzQtHR3jyxXLdV-5" target="p7P3JcYzQtHR3jyxXLdV-6">
          <mxGeometry relative="1" as="geometry" />
        </mxCell>
        <mxCell id="p7P3JcYzQtHR3jyxXLdV-9" style="edgeStyle=orthogonalEdgeStyle;rounded=0;orthogonalLoop=1;jettySize=auto;html=1;entryX=0;entryY=0.5;entryDx=0;entryDy=0;exitX=0.5;exitY=1;exitDx=0;exitDy=0;" edge="1" parent="p7P3JcYzQtHR3jyxXLdV-1" source="p7P3JcYzQtHR3jyxXLdV-5" target="p7P3JcYzQtHR3jyxXLdV-8">
          <mxGeometry relative="1" as="geometry" />
        </mxCell>
        <mxCell id="p7P3JcYzQtHR3jyxXLdV-10" value="mLssHandler" style="edgeLabel;html=1;align=center;verticalAlign=middle;resizable=0;points=[];" vertex="1" connectable="0" parent="p7P3JcYzQtHR3jyxXLdV-9">
          <mxGeometry x="0.0359" y="-2" relative="1" as="geometry">
            <mxPoint as="offset" />
          </mxGeometry>
        </mxCell>
        <mxCell id="p7P3JcYzQtHR3jyxXLdV-17" value="" style="edgeStyle=orthogonalEdgeStyle;rounded=0;orthogonalLoop=1;jettySize=auto;html=1;" edge="1" parent="p7P3JcYzQtHR3jyxXLdV-1" source="p7P3JcYzQtHR3jyxXLdV-11" target="p7P3JcYzQtHR3jyxXLdV-16">
          <mxGeometry relative="1" as="geometry" />
        </mxCell>
        <mxCell id="p7P3JcYzQtHR3jyxXLdV-26" style="edgeStyle=orthogonalEdgeStyle;rounded=0;orthogonalLoop=1;jettySize=auto;html=1;entryX=0;entryY=0.5;entryDx=0;entryDy=0;exitX=0.5;exitY=1;exitDx=0;exitDy=0;" edge="1" parent="p7P3JcYzQtHR3jyxXLdV-1" source="p7P3JcYzQtHR3jyxXLdV-11" target="p7P3JcYzQtHR3jyxXLdV-20">
          <mxGeometry relative="1" as="geometry" />
        </mxCell>
        <mxCell id="p7P3JcYzQtHR3jyxXLdV-30" style="edgeStyle=orthogonalEdgeStyle;rounded=0;orthogonalLoop=1;jettySize=auto;html=1;entryX=0;entryY=0.5;entryDx=0;entryDy=0;exitX=0.5;exitY=1;exitDx=0;exitDy=0;" edge="1" parent="p7P3JcYzQtHR3jyxXLdV-1" source="p7P3JcYzQtHR3jyxXLdV-16" target="p7P3JcYzQtHR3jyxXLdV-27">
          <mxGeometry relative="1" as="geometry" />
        </mxCell>
        <mxCell id="p7P3JcYzQtHR3jyxXLdV-33" value="" style="edgeStyle=orthogonalEdgeStyle;rounded=0;orthogonalLoop=1;jettySize=auto;html=1;entryX=1;entryY=0.5;entryDx=0;entryDy=0;" edge="1" parent="p7P3JcYzQtHR3jyxXLdV-1" source="p7P3JcYzQtHR3jyxXLdV-27" target="p7P3JcYzQtHR3jyxXLdV-32">
          <mxGeometry relative="1" as="geometry">
            <Array as="points">
              <mxPoint x="1008" y="480" />
              <mxPoint x="1008" y="545" />
            </Array>
          </mxGeometry>
        </mxCell>
        <mxCell id="p7P3JcYzQtHR3jyxXLdV-35" value="" style="edgeStyle=orthogonalEdgeStyle;rounded=0;orthogonalLoop=1;jettySize=auto;html=1;" edge="1" parent="p7P3JcYzQtHR3jyxXLdV-1" source="p7P3JcYzQtHR3jyxXLdV-32" target="p7P3JcYzQtHR3jyxXLdV-34">
          <mxGeometry relative="1" as="geometry" />
        </mxCell>
      </root>
    </mxGraphModel>
  </diagram>
</mxfile>
